<?xml version="1.0" encoding="UTF-8" standalone="no"?>
<!-- Created with Inkscape (http://www.inkscape.org/) -->

<svg
   width="859.41711mm"
   height="278.04843mm"
   viewBox="0 0 859.41707 278.04843"
   version="1.1"
   id="svg1"
   xmlns:xlink="http://www.w3.org/1999/xlink"
   xmlns="http://www.w3.org/2000/svg"
   xmlns:svg="http://www.w3.org/2000/svg">
  <defs
     id="defs1">
    <linearGradient
       id="linearGradient79">
      <stop
         style="stop-color:#ffffff;stop-opacity:1;"
         offset="0"
         id="stop79" />
      <stop
         style="stop-color:#ffcc00;stop-opacity:1;"
         offset="1"
         id="stop80" />
    </linearGradient>
    <linearGradient
       id="linearGradient78">
      <stop
         style="stop-color:#ffffff;stop-opacity:1;"
         offset="0"
         id="stop77" />
      <stop
         style="stop-color:#ffcc00;stop-opacity:1;"
         offset="1"
         id="stop78" />
    </linearGradient>
    <linearGradient
       id="linearGradient73">
      <stop
         style="stop-color:#fcfcfa;stop-opacity:1;"
         offset="0"
         id="stop73" />
      <stop
         style="stop-color:#ebc200;stop-opacity:1;"
         offset="1"
         id="stop74" />
    </linearGradient>
    <linearGradient
       id="linearGradient41">
      <stop
         style="stop-color:#020100;stop-opacity:1;"
         offset="0"
         id="stop41" />
      <stop
         style="stop-color:#552200;stop-opacity:1;"
         offset="1"
         id="stop42" />
    </linearGradient>
    <linearGradient
       id="linearGradient38">
      <stop
         style="stop-color:#66330f;stop-opacity:0.984326;"
         offset="0"
         id="stop39" />
      <stop
         style="stop-color:#000000;stop-opacity:1;"
         offset="1"
         id="stop40" />
    </linearGradient>
    <linearGradient
       id="linearGradient37">
      <stop
         style="stop-color:#ffffff;stop-opacity:1;"
         offset="0"
         id="stop37" />
      <stop
         style="stop-color:#0079de;stop-opacity:0;"
         offset="1"
         id="stop38" />
    </linearGradient>
    <linearGradient
       id="linearGradient33">
      <stop
         style="stop-color:#0073c8;stop-opacity:1;"
         offset="0"
         id="stop33" />
      <stop
         style="stop-color:#0048d8;stop-opacity:0.70196078;"
         offset="0.45896953"
         id="stop35" />
      <stop
         style="stop-color:#001de9;stop-opacity:0.10288066;"
         offset="1"
         id="stop34" />
    </linearGradient>
    <linearGradient
       id="linearGradient23">
      <stop
         style="stop-color:#74f1fd;stop-opacity:0.55144036;"
         offset="0"
         id="stop23" />
      <stop
         style="stop-color:#7beffa;stop-opacity:0.19753087;"
         offset="0.29694095"
         id="stop25" />
      <stop
         style="stop-color:#6adfee;stop-opacity:0;"
         offset="1"
         id="stop24" />
    </linearGradient>
    <linearGradient
       xlink:href="#linearGradient23"
       id="linearGradient24"
       x1="1633.1313"
       y1="652.4043"
       x2="1548.4747"
       y2="112.13663"
       gradientUnits="userSpaceOnUse"
       gradientTransform="matrix(0.37326502,0,0,0.36341131,9.4741819,398.57415)" />
    <linearGradient
       xlink:href="#linearGradient33"
       id="linearGradient34"
       x1="862.52637"
       y1="693.50879"
       x2="956.60718"
       y2="499.24951"
       gradientUnits="userSpaceOnUse"
       gradientTransform="matrix(0.4310825,-0.03996141,0.04198125,0.41034182,154.73139,360.79043)" />
    <radialGradient
       xlink:href="#linearGradient37"
       id="radialGradient38"
       cx="1473.3788"
       cy="-11.766223"
       fx="1473.3788"
       fy="-11.766223"
       r="130.19481"
       gradientTransform="matrix(0.3591034,0.10703766,-0.06450512,0.28516684,96.856332,382.29041)"
       gradientUnits="userSpaceOnUse" />
    <linearGradient
       xlink:href="#linearGradient38"
       id="linearGradient40"
       x1="601.59991"
       y1="197.06348"
       x2="501.9436"
       y2="265.1835"
       gradientUnits="userSpaceOnUse"
       gradientTransform="matrix(0.34931054,-0.07728374,0.07898432,0.34178962,371.89594,436.23266)" />
    <linearGradient
       xlink:href="#linearGradient41"
       id="linearGradient42"
       x1="842.27258"
       y1="597.54126"
       x2="940.03607"
       y2="595.98547"
       gradientUnits="userSpaceOnUse"
       gradientTransform="matrix(0.37754575,-0.0780041,0.04921191,0.36475318,225.90462,353.41164)" />
    <radialGradient
       xlink:href="#linearGradient73"
       id="radialGradient74"
       cx="684.94202"
       cy="388.27258"
       fx="684.94202"
       fy="388.27258"
       r="21.859852"
       gradientUnits="userSpaceOnUse"
       gradientTransform="matrix(0.62929176,0.12978092,-0.12650818,0.61342261,259.8341,64.32784)" />
    <radialGradient
       xlink:href="#linearGradient78"
       id="radialGradient77"
       cx="705.76093"
       cy="440.31985"
       fx="705.76093"
       fy="440.31985"
       r="16.655125"
       gradientUnits="userSpaceOnUse"
       gradientTransform="matrix(0.49908759,0.06942599,-0.07703852,0.55381241,362.46332,176.61357)" />
    <radialGradient
       xlink:href="#linearGradient79"
       id="radialGradient80"
       cx="695.35144"
       cy="424.70569"
       fx="695.35144"
       fy="424.70569"
       r="11.450399"
       gradientUnits="userSpaceOnUse"
       gradientTransform="matrix(0.47634066,-0.02977139,0.04545475,0.72727367,338.57673,134.44812)" />
  </defs>
  <g
     id="layer1"
     transform="translate(-536.0685,-365.3718)">
    <path
       id="rect7"
       d="m 555.91781,468.44356 c 11.55416,-13.40159 25.6791,-20.64041 51.43039,-22.22407 -12.33929,16.06846 -11.89539,22.95111 1.6768,37.02649 l -25.6266,13.14929 c -4.02677,-24.04074 -13.72196,-18.0313 -27.48059,-27.95171 z"
       style="fill:url(#linearGradient40);stroke:#000000;stroke-width:1.65523;stroke-dasharray:none;stroke-opacity:1" />
    <path
       id="path32"
       style="fill:url(#linearGradient34);fill-opacity:1;stroke:none;stroke-width:4.15597;stroke-dasharray:none;stroke-opacity:1"
       d="m 597.24814,503.57533 a 71.130737,69.456731 6.21072 0 0 -57.65214,74.91037 71.130737,69.456731 6.21072 0 0 77.83471,62.60689 71.130737,69.456731 6.21072 0 0 63.6822,-75.72553 71.130737,69.456731 6.21072 0 0 -11.57786,-31.66452 44.001612,27.195238 8.2857619 0 1 -0.093,0.46477 44.001612,27.195238 8.2857619 0 1 -49.06369,19.17386 44.001612,27.195238 8.2857619 0 1 -37.62102,-34.07691 44.001612,27.195238 8.2857619 0 1 14.49083,-15.68893 z" />
    <path
       id="path36"
       style="fill:url(#radialGradient38);stroke-width:2.79968"
       d="m 684.62681,559.28596 a 62.351609,43.632139 20.326225 0 1 -69.29191,24.97559 62.351609,43.632139 20.326225 0 1 -49.95297,-60.51882 62.351609,43.632139 20.326225 0 1 69.29192,-24.97557 62.351609,43.632139 20.326225 0 1 49.95296,60.5188 z" />
    <path
       d="m 724.89088,634.36358 q -7.12673,0.002 -13.08467,-3.67272 -5.95793,-3.67521 -10.28608,-10.92292 -4.29271,-7.24783 -6.70742,-18.0158 -2.37927,-10.82043 -2.38415,-25.10871 -0.003,-9.03524 0.98675,-17.65056 0.98984,-8.61533 2.9728,-16.23293 1.98294,-7.67005 4.92365,-14.02724 2.94069,-6.40975 6.87477,-11.03374 3.93409,-4.62398 8.82619,-7.19952 4.89211,-2.57564 10.74241,-2.57759 7.12674,-0.002 13.08467,3.67273 5.95794,3.67521 10.25063,10.92293 4.32816,7.24782 6.70744,18.06825 2.41473,10.82052 2.41959,25.05625 0.003,9.03523 -0.98675,17.65056 -0.98984,8.61532 -2.97278,16.28548 -1.98296,7.61749 -4.92366,14.02724 -2.9407,6.35719 -6.87479,10.98118 -3.93408,4.62399 -8.82619,7.19952 -4.8921,2.57565 -10.74241,2.57759 z m 1.59321,-6.82943 q 4.11294,-10e-4 7.48062,-1.9987 3.36768,-1.99722 5.99021,-5.62272 2.65799,-3.62551 4.60634,-8.77409 1.94834,-5.14869 3.18717,-11.45275 1.27426,-6.35664 1.87452,-13.65855 0.63572,-7.30191 0.63298,-15.3391 -0.005,-14.28828 -1.92311,-24.79374 -1.8828,-10.55802 -5.14713,-17.4384 -3.26436,-6.93293 -7.62665,-10.29343 -4.32685,-3.41307 -9.21983,-3.41144 -4.11295,0.001 -7.48062,1.9987 -3.36768,1.99722 -6.02567,5.62273 -2.62253,3.6255 -4.57088,8.77408 -1.94834,5.14868 -3.2226,11.50532 -1.23883,6.30407 -1.87453,13.65854 -0.60027,7.30191 -0.59754,15.28654 0.005,14.28828 1.88767,24.8463 1.91823,10.50546 5.18259,17.43839 3.26434,6.88038 7.59119,10.29345 4.36229,3.3605 9.25527,3.35887 z M 782.2215,523.50532 q 1.31399,6.14555 2.87703,14.81258 1.56302,8.61448 3.33986,20.38071 1.81227,11.71366 3.803,26.84177 2.02618,15.1281 4.23101,34.24845 l 0.21274,-7e-5 q 3.29421,-9.45658 6.41118,-18.80798 3.15243,-9.35152 5.91502,-18.17756 2.76257,-8.87848 5.06445,-17.02155 2.30187,-8.19552 3.96588,-15.34021 1.66401,-7.1447 2.58387,-13.02841 0.91984,-5.93617 0.91835,-10.29628 -0.004,-11.08389 -4.93438,-17.38591 l 0.28333,-0.94559 q 0.67362,-0.1579 1.38271,-0.26314 0.7091,-0.10557 1.45368,-0.10582 1.80828,-6e-4 3.54587,0.68175 1.77304,0.62977 3.15636,2.15272 1.38332,1.52295 2.23515,4.09658 0.88729,2.57373 0.8886,6.40848 10e-4,3.4145 -1.09594,9.40328 -1.0971,5.9889 -3.15083,14.02665 -2.05373,8.03788 -5.02869,17.91459 -2.93951,9.8767 -6.62314,21.1195 -3.68365,11.19013 -8.07603,23.53633 -4.35693,12.29352 -9.24551,25.21769 l -5.81461,0.68474 -0.74465,-0.15731 q -5.50996,-41.65485 -9.38361,-67.70867 -3.87366,-26.10626 -6.67843,-36.97922 -0.71008,-2.78379 -1.45534,-4.77976 -0.74527,-1.99585 -1.70302,-3.25627 -0.95776,-1.26041 -2.26984,-1.83789 -1.27662,-0.57738 -3.12036,-0.57677 -1.17006,3.9e-4 -2.58823,0.26354 -1.41818,0.21059 -3.22631,0.63144 l -0.39162,-4.67511 q 5.49504,-2.05049 9.18213,-3.15488 3.68709,-1.10439 6.20449,-1.10523 1.80828,-6e-4 2.97861,0.78705 1.17032,0.73498 1.98637,2.36313 0.85149,1.57568 1.49056,4.09693 0.67452,2.46868 1.42029,5.9355 z m 60.70258,3.5519 q -7.5e-4,-2.20633 -0.24948,-3.78211 -0.21327,-1.5759 -0.85181,-2.52118 -0.60311,-0.99796 -1.70239,-1.41784 -1.09932,-0.47232 -2.83668,-0.47175 -1.1346,3.8e-4 -2.55279,0.21097 -1.4182,0.15804 -3.22637,0.47377 l -0.39169,-4.88512 q 3.47446,-0.7892 6.4526,-1.36799 2.97812,-0.63136 5.56629,-1.05246 2.62362,-0.47368 4.89276,-0.68455 2.26913,-0.21088 4.29015,-0.21155 5.60211,-0.002 10.60143,-0.10886 5.03475,-0.15924 8.89947,-0.26564 3.90015,-0.15886 6.38206,-0.2648 2.51735,-0.1584 3.08465,-0.15859 1.631,-5.4e-4 2.48235,1.1549 0.88679,1.10276 0.88759,3.46666 3.3e-4,0.9456 -0.14057,3.67723 -0.10544,2.73162 -0.31696,6.30376 -0.17607,3.51957 -0.42293,7.45941 -0.24684,3.93984 -0.52933,7.35444 l -3.40387,-0.15643 q 0.0702,-1.99624 0.1051,-3.72967 0.0349,-1.73354 0.0344,-3.25696 -0.002,-4.41255 -0.357,-7.14402 -0.35552,-2.78402 -1.31338,-4.35956 -0.92241,-1.57566 -2.5536,-2.15293 -1.63119,-0.57726 -4.14861,-0.62899 -3.51021,-0.0515 -6.16943,-0.0506 -2.65926,-0.0518 -5.10574,-0.051 l -1.8792,6.2e-4 q -1.34734,4.5e-4 -2.76558,0.0536 -1.38279,4.6e-4 -3.36832,0.10646 -0.0694,4.36003 -0.17395,9.77067 -0.069,5.35819 -0.17335,11.50431 -0.10427,6.14602 -0.24377,12.97508 -0.10403,6.82894 -0.24338,14.07824 4.57398,0.31361 8.11967,0.4701 3.54568,0.10417 6.55948,0.10317 3.65201,-10e-4 6.45296,-0.31728 2.83638,-0.36874 5.35353,-1.10494 0.5681,2.31115 0.56872,4.14969 5.2e-4,1.52341 -0.63733,2.57423 -0.63786,1.05082 -1.80768,1.73413 -1.16985,0.63076 -2.83619,0.94644 -1.66637,0.26323 -3.72284,0.26391 -3.65201,10e-4 -8.297,-0.57504 -4.60954,-0.62884 -9.89285,-1.52013 -0.0698,3.04674 -0.17477,7.35432 -0.10492,4.25503 -0.24509,9.08788 -0.14018,4.83285 -0.35118,9.92829 -0.17556,5.04298 -0.3867,9.71829 -0.1757,4.62274 -0.42257,8.51013 -0.21143,3.83471 -0.45878,6.30381 3.43902,-0.73663 6.7009,-1.05284 3.26186,-0.36888 5.9211,-0.36976 3.72291,-10e-4 6.94956,0.31293 3.26208,0.26159 6.45315,0.26053 2.12739,-7e-4 3.72264,-0.84172 1.63069,-0.89359 2.83545,-3.10032 1.20475,-2.25919 1.9835,-6.04164 0.81421,-3.78246 1.27314,-9.61347 l 3.19117,0.26162 q -0.10335,8.82515 -0.84599,14.55114 -0.74262,5.72609 -2.08883,9.03593 -1.31077,3.30994 -3.22498,4.5713 -1.9142,1.31382 -4.32523,1.31462 -1.91465,6.4e-4 -4.21949,-0.52385 -2.30485,-0.52459 -5.03522,-1.2065 -2.73037,-0.62945 -5.92162,-1.15375 -3.1558,-0.5242 -6.80781,-0.52299 -3.22653,0.001 -7.12652,0.63273 -3.86455,0.5791 -7.94155,1.99874 l -0.63825,-0.10512 q 0.53004,-5.25323 0.91752,-12.71274 0.42293,-7.45941 0.73902,-16.28463 0.31608,-8.87778 0.52547,-18.70101 0.20938,-9.82335 0.3478,-19.80413 0.1384,-10.03333 0.17052,-19.80407 0.0675,-9.82319 0.0645,-18.59574 z m 61.05593,-0.0203 q -7.5e-4,-2.20633 -0.24948,-3.78211 -0.24873,-1.57589 -0.88729,-2.57373 -0.6031,-0.99785 -1.70241,-1.47028 -1.09931,-0.47244 -2.80121,-0.47187 -2.34013,7.7e-4 -5.99187,0.78992 l -0.42707,-4.67499 q 3.29714,-0.89414 7.19702,-1.84104 3.93534,-0.9468 8.04801,-1.7361 4.14813,-0.78941 8.29637,-1.26348 4.18368,-0.52675 8.01297,-0.52803 5.14118,-0.002 9.53824,1.36268 4.39704,1.31172 7.62465,4.46247 3.22759,3.09831 5.07307,8.19307 1.84547,5.09487 1.84805,12.65925 0.002,6.98658 -1.5557,12.81795 -1.52266,5.77891 -4.35761,10.34997 -2.79949,4.57106 -6.80496,7.82933 -4.00546,3.25817 -8.93326,5.1509 3.69066,9.34925 6.70688,16.43983 3.01621,7.09058 5.53545,12.44791 2.51922,5.30465 4.61246,9.13871 2.09321,3.7815 3.9379,6.56502 1.45448,2.2583 2.73145,3.83385 1.27695,1.52287 2.44733,2.46809 1.20584,0.94509 2.41151,1.36493 1.20566,0.41985 2.51755,0.41941 1.41825,-4.7e-4 2.69454,-0.42114 1.27629,-0.42067 2.80062,-1.26166 l 0.99425,4.30722 q -4.50192,3.04821 -7.97614,4.52022 -3.47421,1.52456 -5.81433,1.52534 -1.17007,3.9e-4 -2.2339,-0.4195 -1.06382,-0.36733 -2.09232,-1.15492 -1.02851,-0.7877 -2.05716,-1.99553 -1.02867,-1.26039 -2.1993,-2.94097 -1.91556,-2.67839 -4.43453,-7.24768 -2.51898,-4.62184 -5.7124,-11.50235 -3.15799,-6.93297 -7.02597,-16.38717 -3.86798,-9.4542 -8.517,-21.84984 l 0.0707,-0.68284 q 6.27565,-0.36988 10.60058,-2.57754 4.32493,-2.20777 6.98287,-5.99085 2.6934,-3.78309 3.89714,-8.98397 1.20372,-5.25345 1.20152,-11.71467 -0.004,-12.39718 -4.40293,-18.54181 -4.39869,-6.14463 -13.0146,-6.14177 -1.84374,6.2e-4 -3.51011,0.21129 -1.66639,0.21068 -3.68727,0.57915 -0.0695,4.04478 -0.20904,10.82128 -0.10406,6.77649 -0.27833,15.60167 -0.13883,8.7726 -0.34798,19.27876 -0.20917,10.45361 -0.418,21.90537 -0.20884,11.39921 -0.45292,23.48124 -0.24408,12.02958 -0.48819,24.00661 l -8.40263,1.57865 -0.63825,-0.10513 q 0.42033,-15.07636 0.77029,-28.57683 0.34995,-13.50047 0.55833,-26.26541 0.24381,-12.81751 0.38137,-25.31986 0.13754,-12.5548 0.13306,-25.68736 z m 73.46362,97.78724 q 2.65957,0.99717 5.07073,1.36416 2.41116,0.36688 4.85766,0.36607 4.39659,-10e-4 8.22534,-1.5787 3.82874,-1.62969 6.62864,-5.04513 2.8353,-3.46789 4.429,-8.82659 1.6292,-5.41115 1.6266,-12.92297 0,-6.98658 -1.6352,-12.23908 -1.6328,-5.30507 -4.7541,-8.82354 -3.08595,-3.51849 -7.62496,-5.25051 -4.53903,-1.78447 -10.35388,-1.78254 -1.1346,3.8e-4 -2.34009,0.10612 -1.17004,0.0531 -2.37552,0.15835 -0.0698,3.20441 -0.17472,7.512 -0.10491,4.25492 -0.24507,9.14032 -0.14016,4.88541 -0.31567,10.08596 -0.14005,5.20053 -0.31562,10.19106 -0.17558,4.99043 -0.35132,9.50805 -0.17574,4.51773 -0.35182,8.0373 z m 2.62217,-108.52874 q -0.0343,3.41441 -0.10349,8.40491 -0.0692,4.93783 -0.17349,11.13651 -0.10426,6.14602 -0.24361,13.39532 -0.1039,7.24918 -0.24298,15.28642 3.08467,-0.10637 6.09825,-0.7374 3.04901,-0.68394 5.77871,-1.99813 2.76515,-1.31421 5.10456,-3.41621 2.33939,-2.15444 4.04025,-5.14927 1.7364,-2.99484 2.6923,-6.98747 0.9914,-4.04521 0.9897,-9.19313 0,-6.04098 -1.3154,-10.19053 -1.3133,-4.14944 -3.61884,-6.67014 -2.27007,-2.52071 -5.35515,-3.62285 -3.04963,-1.10204 -6.55981,-1.10087 -1.70191,5.6e-4 -3.51011,0.21129 -1.77275,0.21071 -3.58089,0.63155 z m -9.25046,10.71929 q -7.5e-4,-2.20634 -0.24949,-3.78211 -0.24873,-1.57589 -0.88728,-2.57373 -0.60311,-0.99785 -1.70241,-1.47028 -1.09932,-0.47244 -2.80122,-0.47188 -2.34013,7.8e-4 -5.99186,0.78992 l -0.35616,-4.675 q 3.22622,-0.89412 7.01974,-1.84099 3.79351,-0.94675 7.79981,-1.73601 4.04177,-0.78938 8.08363,-1.26342 4.07731,-0.52671 7.87115,-0.52797 3.0847,-10e-4 6.0632,0.47078 2.9785,0.47182 5.63815,1.57399 2.6595,1.04972 4.8939,2.88763 2.2345,1.78524 3.8663,4.46372 1.632,2.67859 2.5551,6.35536 0.9231,3.62433 0.9247,8.35201 0,6.77646 -1.6624,12.08261 -1.6291,5.25359 -4.4289,9.19428 -2.7997,3.88824 -6.4508,6.56848 -3.65112,2.62768 -7.69261,4.20499 l 1.6e-4,0.4728 q 5.31866,0.57604 9.82235,2.6232 4.5036,2.04717 7.8024,5.82826 3.2987,3.7811 5.1444,9.34877 1.8811,5.56755 1.8837,13.18449 0,6.40877 -1.2016,11.5571 -1.1683,5.14843 -3.2589,9.14144 -2.0905,3.99301 -4.9616,6.83055 -2.8355,2.83765 -6.1678,4.67729 -3.33227,1.83965 -7.01945,2.68136 -3.68716,0.89427 -7.44554,0.89552 -3.12016,10e-4 -5.99231,-0.52337 -2.83669,-0.52431 -6.06349,-1.31116 l -6.87813,1.21046 -0.63826,-0.10513 q 0.45857,-6.93418 0.81039,-14.97137 0.38728,-8.03731 0.63248,-16.80995 0.28066,-8.77277 0.49024,-18.0182 0.20958,-9.24543 0.31275,-18.59583 0.13862,-9.40297 0.17092,-18.64834 0.0677,-9.29794 0.0647,-18.0705 z m 63.89246,-0.0212 q -8e-4,-2.20633 -0.2495,-3.78211 -0.2487,-1.57588 -0.8873,-2.57372 -0.603,-0.99785 -1.7024,-1.47029 -1.0993,-0.47243 -2.8012,-0.47187 -2.3401,7.8e-4 -5.9919,0.78992 l -0.4271,-4.67498 q 3.2972,-0.89415 7.1971,-1.84105 3.9353,-0.9468 8.048,-1.73609 4.1482,-0.78942 8.2963,-1.26349 4.1838,-0.52675 8.0131,-0.52802 5.1412,-0.002 9.5382,1.36267 4.3971,1.31172 7.6246,4.46248 3.2276,3.0983 5.0731,8.19306 1.8455,5.09487 1.848,12.65925 0,6.98658 -1.5557,12.81795 -1.5226,5.77892 -4.3575,10.34998 -2.7995,4.57105 -6.805,7.82933 -4.0055,3.25816 -8.9333,5.15089 3.6907,9.34925 6.7069,16.43984 3.0162,7.09058 5.5355,12.4479 2.5192,5.30466 4.6124,9.13871 2.0932,3.7815 3.9379,6.56503 1.4545,2.2583 2.7315,3.83384 1.2769,1.52288 2.4473,2.46809 1.2058,0.94509 2.4115,1.36494 1.2056,0.41984 2.5175,0.4194 1.4183,-4.7e-4 2.6946,-0.42114 1.2763,-0.42066 2.8006,-1.26166 l 0.9942,4.30723 q -4.5019,3.0482 -7.976,4.52021 -3.4743,1.52457 -5.8144,1.52534 -1.1701,3.9e-4 -2.2339,-0.4195 -1.0638,-0.36733 -2.0923,-1.15492 -1.0286,-0.7877 -2.0572,-1.99553 -1.0286,-1.26039 -2.1993,-2.94097 -1.9155,-2.67839 -4.4345,-7.24767 -2.519,-4.62185 -5.7124,-11.50236 -3.158,-6.93297 -7.026,-16.38717 -3.868,-9.45419 -8.517,-21.84984 l 0.071,-0.68283 q 6.2756,-0.36988 10.6005,-2.57754 4.3249,-2.20778 6.9829,-5.99085 2.6934,-3.78309 3.8971,-8.98398 1.2038,-5.25344 1.2016,-11.71466 0,-12.39719 -4.4029,-18.54182 -4.3987,-6.14463 -13.0147,-6.14176 -1.8437,6.1e-4 -3.5101,0.21129 -1.6663,0.21067 -3.6873,0.57914 -0.07,4.04478 -0.209,10.82129 -0.1041,6.77649 -0.2783,15.60166 -0.1388,8.77261 -0.348,19.27877 -0.2091,10.4536 -0.418,21.90537 -0.2088,11.3992 -0.4529,23.48123 -0.2441,12.02958 -0.4882,24.00661 l -8.4026,1.57865 -0.6383,-0.10513 q 0.4204,-15.07635 0.7703,-28.57682 0.35,-13.50047 0.5583,-26.26542 0.2438,-12.81751 0.3814,-25.31986 0.1375,-12.5548 0.133,-25.68735 z m 66.7999,-0.0222 q -8e-4,-2.20633 -0.2495,-3.78211 -0.2133,-1.57589 -0.8518,-2.52117 -0.6031,-0.99797 -1.7024,-1.41785 -1.0993,-0.47232 -2.8367,-0.47174 -1.1346,3.7e-4 -2.5528,0.21097 -1.4182,0.15803 -3.2263,0.47376 l -0.3917,-4.88512 q 3.4744,-0.78919 6.4526,-1.36799 2.9781,-0.63136 5.5663,-1.05246 2.6235,-0.47367 4.8927,-0.68455 2.2691,-0.21088 4.2902,-0.21155 5.6021,-0.002 10.6014,-0.10886 5.0348,-0.15924 8.8995,-0.26564 3.9001,-0.15886 6.3821,-0.2648 2.5173,-0.1584 3.0846,-0.15859 1.6309,-5.4e-4 2.4823,1.1549 0.8868,1.10276 0.8876,3.46666 3e-4,0.94561 -0.1406,3.67724 -0.1054,2.73161 -0.3169,6.30376 -0.1761,3.51957 -0.423,7.4594 -0.2468,3.93984 -0.5293,7.35444 l -3.4039,-0.15643 q 0.071,-1.99623 0.1051,-3.72967 0.035,-1.73354 0.034,-3.25695 0,-4.41256 -0.357,-7.14403 -0.3556,-2.78402 -1.3134,-4.35956 -0.9224,-1.57566 -2.5536,-2.15293 -1.6312,-0.57726 -4.1486,-0.62898 -3.5102,-0.0515 -6.1694,-0.0506 -2.6593,-0.0518 -5.1058,-0.051 l -1.8792,6.3e-4 q -1.3473,4.4e-4 -2.7656,0.0536 -1.3828,4.6e-4 -3.3683,0.10646 -0.07,4.36002 -0.174,9.77066 -0.069,5.35819 -0.1733,11.50431 -0.1043,6.14602 -0.2438,12.97508 -0.104,6.82894 -0.2433,14.07824 4.574,0.31361 8.1197,0.47011 3.5456,0.10416 6.5594,0.10316 3.652,-10e-4 6.453,-0.31727 2.8364,-0.36874 5.3535,-1.10495 0.5681,2.31115 0.5687,4.14969 5e-4,1.52341 -0.6373,2.57423 -0.6379,1.05082 -1.8077,1.73414 -1.1698,0.63075 -2.8361,0.94643 -1.6665,0.26323 -3.7229,0.26392 -3.652,10e-4 -8.297,-0.57505 -4.6095,-0.62884 -9.8929,-1.52013 -0.07,3.04674 -0.1748,7.35433 -0.1049,4.25503 -0.245,9.08787 -0.1402,4.83285 -0.3512,9.92829 -0.1756,5.04299 -0.3867,9.71829 -0.1757,4.62274 -0.4226,8.51013 -0.2114,3.83471 -0.4587,6.30381 3.4389,-0.73662 6.7008,-1.05283 3.2619,-0.36889 5.9212,-0.36977 3.7228,-10e-4 6.9495,0.31293 3.2621,0.2616 6.4531,0.26054 2.1274,-7.1e-4 3.7227,-0.84173 1.6307,-0.89359 2.8355,-3.10032 1.2047,-2.25918 1.9835,-6.04164 0.8141,-3.78246 1.2731,-9.61346 l 3.1911,0.26162 q -0.1033,8.82515 -0.846,14.55113 -0.7425,5.72609 -2.0888,9.03593 -1.3108,3.30994 -3.2249,4.57131 -1.9143,1.31381 -4.3253,1.31461 -1.9146,6.4e-4 -4.2195,-0.52384 -2.3048,-0.5246 -5.0352,-1.2065 -2.7303,-0.62946 -5.9216,-1.15376 -3.1558,-0.5242 -6.8078,-0.52299 -3.2266,10e-4 -7.1265,0.63274 -3.8646,0.57909 -7.9416,1.99874 l -0.6382,-0.10513 q 0.53,-5.25322 0.9175,-12.71273 0.4229,-7.45941 0.739,-16.28463 0.3161,-8.87778 0.5255,-18.70102 0.2093,-9.82335 0.3478,-19.80413 0.1384,-10.03333 0.1705,-19.80406 0.068,-9.82319 0.065,-18.59575 z m 115.2342,106.3358 -0.7447,-0.15732 q -1.0315,-9.66526 -2.0626,-18.01723 -0.9956,-8.35199 -2.0264,-15.75847 -0.9953,-7.40649 -1.9904,-14.0775 -0.9596,-6.67102 -1.8836,-12.92192 -1.3148,-8.71956 -2.3456,-16.07348 -1.0307,-7.40648 -2.1677,-14.18256 l -0.2481,8e-5 q -1.4157,7.61742 -2.867,14.70948 -1.4513,7.03962 -2.9736,13.97415 -1.5222,6.88196 -3.1863,13.92166 -1.6641,6.98701 -3.5052,14.49957 -1.8412,7.51243 -3.9303,15.76044 -2.0536,8.24788 -4.3906,17.59913 l -6.0982,0.7374 -0.7447,-0.15732 q -5.6164,-41.96994 -9.6674,-68.07625 -4.0154,-26.15878 -6.3946,-36.55908 -0.6392,-2.83637 -1.349,-4.77979 -0.7098,-1.99598 -1.6675,-3.25639 -0.9578,-1.26041 -2.2698,-1.83779 -1.2767,-0.57738 -3.085,-0.57678 -1.17,3.9e-4 -2.5528,0.26353 -1.4182,0.21059 -3.1199,0.6314 l -0.3916,-4.6751 q 5.495,-1.99804 9.1112,-3.04985 3.6517,-1.10427 6.0272,-1.10506 1.8792,-6.3e-4 3.0851,0.7869 1.2412,0.73496 2.0927,2.41565 0.8515,1.68069 1.4906,4.35962 0.6392,2.67881 1.3496,6.51332 1.0301,5.46283 2.4513,13.86723 1.4565,8.35183 3.1977,19.75039 1.7413,11.39844 3.7673,25.84373 2.0259,14.44517 4.2302,32.09468 l 0.2482,-9e-5 q 1.7704,-7.14473 3.6468,-15.12998 1.912,-7.98527 3.8592,-16.44334 1.9472,-8.45808 3.8944,-17.23129 1.947,-8.7732 3.8233,-17.49394 1.8761,-8.77318 3.6106,-17.33619 1.7699,-8.56303 3.3272,-16.60073 0.1769,-0.94567 0.8505,-1.36613 0.6735,-0.42047 1.4535,-0.42073 0.7801,-2.6e-4 1.4184,0.31477 0.9237,5.25274 2.0963,12.50149 1.1724,7.19631 2.4517,15.65332 1.2793,8.40445 2.6299,17.75437 1.386,9.29745 2.7011,18.85762 1.3506,9.56003 2.5949,19.0151 1.2441,9.45507 2.3107,18.06971 l 0.1773,-6e-5 q 2.5502,-7.88036 5.0647,-16.33863 2.55,-8.51083 4.8518,-16.96892 2.3372,-8.45821 4.32,-16.65362 2.0182,-8.19542 3.4694,-15.4976 1.4867,-7.30232 2.3001,-13.44857 0.8488,-6.14637 0.8473,-10.55893 -8e-4,-2.57402 -0.3209,-5.20038 -0.2845,-2.62648 -0.8881,-4.93762 -0.6035,-2.31114 -1.5615,-4.20192 -0.9225,-1.89079 -2.1993,-2.99353 l 0.1415,-0.9981 q 0.7091,-0.1578 1.4182,-0.26315 0.7091,-0.10558 1.4182,-0.10581 1.9856,-6.6e-4 3.7941,0.73411 1.8085,0.73488 3.1919,2.31028 1.3833,1.57551 2.1996,4.0967 0.8164,2.52119 0.8176,6.0407 9e-4,2.67902 -0.6358,7.09179 -0.6368,4.36033 -1.8403,10.08646 -1.1681,5.72624 -2.8322,12.60825 -1.6641,6.82957 -3.718,14.49964 -2.0184,7.67018 -4.3911,16.02328 -2.3373,8.30065 -4.9226,16.9165 -2.55,8.56328 -5.2772,17.28419 -2.6917,8.66845 -5.4544,17.1268 z m 48.9998,-106.39038 q -7e-4,-2.20633 -0.2494,-3.78211 -0.2133,-1.5759 -0.8519,-2.52118 -0.6031,-0.99796 -1.7023,-1.41784 -1.0993,-0.47232 -2.8367,-0.47174 -1.1346,3.7e-4 -2.5528,0.21097 -1.4182,0.15803 -3.2264,0.47376 l -0.3916,-4.88512 q 3.4744,-0.7892 6.4525,-1.36799 2.9782,-0.63136 5.5663,-1.05246 2.6236,-0.47367 4.8928,-0.68455 2.2691,-0.21088 4.2901,-0.21155 5.6022,-0.002 10.6014,-0.10886 5.0348,-0.15924 8.8996,-0.26564 3.9001,-0.15886 6.382,-0.2648 2.5174,-0.1584 3.0847,-0.15859 1.6309,-5.4e-4 2.4823,1.1549 0.8868,1.10276 0.8876,3.46666 3e-4,0.9456 -0.1406,3.67723 -0.1054,2.73162 -0.317,6.30376 -0.176,3.51958 -0.4229,7.45941 -0.2468,3.93984 -0.5293,7.35444 l -3.4039,-0.15643 q 0.07,-1.99624 0.1051,-3.72967 0.035,-1.73354 0.034,-3.25695 0,-4.41256 -0.3569,-7.14403 -0.3556,-2.78402 -1.3134,-4.35956 -0.9225,-1.57566 -2.5536,-2.15293 -1.6313,-0.57726 -4.1487,-0.62899 -3.5101,-0.0515 -6.1693,-0.0506 -2.6594,-0.0518 -5.1058,-0.051 l -1.8792,6.3e-4 q -1.3474,4.4e-4 -2.7656,0.0536 -1.3828,4.6e-4 -3.3683,0.10647 -0.07,4.36002 -0.174,9.77066 -0.069,5.35819 -0.1733,11.50431 -0.1043,6.14602 -0.2438,12.97508 -0.104,6.82894 -0.2434,14.07824 4.574,0.31361 8.1197,0.47011 3.5457,0.10416 6.5595,0.10316 3.652,-10e-4 6.4529,-0.31727 2.8364,-0.36874 5.3536,-1.10495 0.568,2.31115 0.5687,4.14969 5e-4,1.52341 -0.6373,2.57423 -0.6379,1.05082 -1.8077,1.73413 -1.1699,0.63076 -2.8362,0.94644 -1.6664,0.26323 -3.7228,0.26392 -3.652,0.001 -8.2971,-0.57505 -4.6095,-0.62884 -9.8928,-1.52013 -0.07,3.04674 -0.1748,7.35433 -0.1049,4.25502 -0.2451,9.08787 -0.1401,4.83285 -0.3511,9.92829 -0.1756,5.04298 -0.3868,9.71829 -0.1756,4.62274 -0.4225,8.51013 -0.2114,3.83471 -0.4588,6.30381 3.439,-0.73662 6.7009,-1.05284 3.2619,-0.36888 5.9211,-0.36976 3.7229,-10e-4 6.9496,0.31293 3.2621,0.26159 6.4531,0.26053 2.1274,-7e-4 3.7227,-0.84172 1.6306,-0.89359 2.8354,-3.10032 1.2047,-2.25919 1.9835,-6.04164 0.8142,-3.78246 1.2732,-9.61347 l 3.1911,0.26162 q -0.1033,8.82516 -0.846,14.55114 -0.7426,5.72609 -2.0888,9.03593 -1.3108,3.30994 -3.225,4.57131 -1.9142,1.31381 -4.3252,1.31461 -1.9146,6.4e-4 -4.2195,-0.52385 -2.3049,-0.52459 -5.0352,-1.20649 -2.7304,-0.62946 -5.9217,-1.15376 -3.1557,-0.5242 -6.8078,-0.52299 -3.2265,10e-4 -7.1264,0.63274 -3.8646,0.57909 -7.9416,1.99874 l -0.6383,-0.10513 q 0.5301,-5.25323 0.9176,-12.71273 0.4229,-7.45941 0.739,-16.28464 0.316,-8.87778 0.5255,-18.70101 0.2093,-9.82335 0.3477,-19.80413 0.1384,-10.03333 0.1706,-19.80406 0.068,-9.82319 0.065,-18.59575 z m 70.3066,-10.47701 q -0.035,2.62659 -0.1038,7.8271 -0.069,5.20051 -0.1731,12.13457 -0.104,6.88161 -0.2785,15.07642 -0.139,8.14223 -0.3134,16.70473 -0.1744,8.51005 -0.3842,16.96744 -0.2099,8.4575 -0.42,15.96939 -0.2102,7.51201 -0.4563,13.65807 -0.2107,6.09361 -0.4221,9.92843 3.5106,1.36468 6.4536,1.83639 2.9785,0.41925 5.8505,0.4183 5.9567,-0.002 10.6362,-2.20976 4.715,-2.2079 8.2593,-6.14883 3.5797,-3.99351 6.0597,-9.4575 2.5156,-5.464 4.0734,-11.9783 1.5934,-6.5143 2.3,-13.8688 0.7421,-7.35451 0.7394,-15.07646 0,-11.5567 -1.7446,-21.16917 -1.7052,-9.61259 -5.6077,-16.54531 -3.8671,-6.93274 -10.1088,-10.7653 -6.2416,-3.88524 -15.2476,-3.88224 -2.2337,7.4e-4 -4.5029,0.15906 -2.2691,0.15843 -4.6091,0.42177 z m -21.3809,-1.72631 q 3.7581,-1.05186 7.7289,-1.99878 3.9707,-0.99938 8.0125,-1.7362 4.0418,-0.73671 8.0836,-1.1583 4.0774,-0.47416 8.0485,-0.47548 5.5312,-0.002 10.7082,1.04705 5.2124,0.99632 9.7871,3.46382 4.6102,2.41481 8.4409,6.51097 3.8307,4.04348 6.5629,10.13611 2.7677,6.04017 4.2951,14.33941 1.5275,8.29937 1.5312,19.17314 0,9.77061 -1.3055,18.75383 -1.3088,8.93056 -3.8236,16.65335 -2.5148,7.72289 -6.1646,14.02776 -3.6144,6.30486 -8.2931,10.82397 -4.6433,4.46666 -10.28,6.93744 -5.6013,2.41832 -12.0544,2.42046 -3.3328,10e-4 -6.7724,-0.68067 -3.4395,-0.68178 -7.1629,-2.09884 l -7.0199,1.26307 -0.6383,-0.10513 q 0.2471,-3.36203 0.5289,-8.87774 0.2817,-5.56838 0.5274,-12.92272 0.2811,-7.35436 0.5262,-16.33712 0.2451,-9.03532 0.4189,-19.38391 0.2092,-10.40104 0.3116,-21.90533 0.1025,-11.50418 0.098,-23.90136 -8e-4,-2.52146 -0.1433,-4.41251 -0.1425,-1.89105 -0.7457,-3.15158 -0.5677,-1.26054 -1.7379,-1.89052 -1.1349,-0.62999 -3.1204,-0.62933 -2.3402,7.8e-4 -5.9919,0.78992 z"
       id="text44"
       style="font-size:192px;font-family:Gabriola;-inkscape-font-specification:'Gabriola, Normal';white-space:pre;fill-opacity:0.731707;stroke-width:23.0172"
       aria-label="OVERBREWED" />
    <path
       id="path46"
       style="fill:url(#radialGradient74);stroke-width:1.95071"
       d="m 661.17379,417.41905 -21.57781,-9.8128 -23.35632,3.61671 9.61654,-22.01819 -3.54437,-23.83298 21.57783,9.8128 23.35632,-3.61669 -9.61654,22.01818 z" />
    <path
       id="path47"
       style="fill:url(#radialGradient77);stroke-width:1.91316"
       d="m 669.65314,488.20334 0.19922,-15.83879 -8.85208,-13.4378 16.71872,0.18873 14.18434,-8.38617 -0.19921,15.83878 8.85207,13.4378 -16.71871,-0.18873 z" />
    <path
       id="path48"
       style="fill:url(#radialGradient80);stroke-width:1.65523"
       d="m 700.55618,430.95136 -10.34631,-1.335 -9.43165,4.45784 1.335,-10.34631 -4.45784,-9.43165 10.34631,1.33499 9.43165,-4.45783 -1.33499,10.34631 z" />
  </g>
  <g
     id="layer2"
     transform="translate(-536.0685,-365.3718)">
    <path
       id="path1"
       style="fill:url(#linearGradient24);stroke:#000000;stroke-width:2.51566;stroke-dasharray:none;stroke-opacity:1"
       d="m 608.22598,465.60354 c -15.1678,1.67046 -24.11884,6.74556 -37.34388,23.16939 6.4694,5.46326 10.81323,11.09914 13.03165,17.27779 a 72.258003,70.350488 0 0 0 -46.58739,65.76122 72.258003,70.350488 0 0 0 72.25797,70.35044 72.258003,70.350488 0 0 0 72.25815,-70.35044 72.258003,70.350488 0 0 0 -63.3833,-69.81786 c -5.73105,-9.1356 -9.93413,-21.00881 -10.2332,-36.39054 z" />
    <path
       id="path2"
       style="fill:url(#linearGradient42);stroke:#000000;stroke-width:2.16788"
       d="m 624.97763,494.99039 a 6.9872343,25.830487 78.010849 0 1 -24.35467,12.16805 6.9872343,25.830487 78.010849 0 1 -26.22805,-1.71724 6.9872343,25.830487 78.010849 0 1 24.35467,-12.16805 6.9872343,25.830487 78.010849 0 1 26.22805,1.71724 z" />
    <path
       id="path4"
       style="stroke:#000000;stroke-width:2.05739"
       d="m 610.21015,496.63786 a 7.1696063,4.457485 44.604305 0 1 0.34003,7.67621 7.1696063,4.457485 44.604305 0 1 -8.44272,-3.37902 7.1696063,4.457485 44.604305 0 1 -0.408,-7.7034 7.1696063,4.457485 44.604305 0 1 8.43943,3.31699 l -3.99783,2.21547 z" />
    <path
       id="path11"
       style="stroke:#000000;stroke-width:1.84672"
       d="m 591.80829,500.16452 a 6.6229759,3.8877713 32.272229 0 1 2.20727,6.6758 6.6229759,3.8877713 32.272229 0 1 -8.12591,-1.33986 6.6229759,3.8877713 32.272229 0 1 -2.2727,-6.68659 6.6229759,3.8877713 32.272229 0 1 8.10761,1.28602 l -2.89648,2.7164 z" />
    <path
       d="m 741.30387,627.53147 q -7.03221,0.002 -12.91112,-3.67388 -5.8789,-3.67636 -10.14965,-10.92635 -4.23577,-7.25011 -6.61845,-18.02146 -2.34771,-10.82382 -2.35253,-25.11659 -0.003,-9.03808 0.97367,-17.65611 0.97671,-8.61803 2.93336,-16.23803 1.95664,-7.67245 4.85834,-14.03164 2.9017,-6.41176 6.78359,-11.0372 3.88191,-4.62544 8.70913,-7.20179 4.82721,-2.57645 10.59992,-2.5784 7.03221,-0.002 12.91112,3.67388 5.8789,3.67637 10.11466,10.92636 4.27075,7.2501 6.61847,18.07393 2.3827,10.82392 2.3875,25.06412 0.003,9.03807 -0.97367,17.6561 -0.9767,8.61803 -2.93334,16.2906 -1.95666,7.61989 -4.85835,14.03165 -2.9017,6.35919 -6.78361,10.98463 -3.8819,4.62544 -8.70911,7.20178 -4.82722,2.57645 -10.59993,2.5784 z m 1.57207,-6.83158 q 4.05839,-10e-4 7.3814,-1.99933 3.32301,-1.99784 5.91076,-5.62448 2.62274,-3.62665 4.54524,-8.77685 1.9225,-5.1503 3.14489,-11.45635 1.25736,-6.35863 1.84966,-13.66283 0.62729,-7.30421 0.62459,-15.34392 -0.005,-14.29277 -1.89761,-24.80153 -1.85782,-10.56134 -5.07886,-17.44388 -3.22106,-6.93511 -7.52548,-10.29666 -4.26946,-3.41415 -9.09755,-3.41252 -4.05839,0.001 -7.38139,1.99933 -3.32301,1.99785 -5.94575,5.6245 -2.58775,3.62664 -4.51025,8.77683 -1.9225,5.15031 -3.17986,11.50894 -1.22239,6.30605 -1.84967,13.66283 -0.5923,7.3042 -0.58961,15.29134 0.005,14.29277 1.86263,24.85411 1.89279,10.50875 5.11385,17.44386 3.22104,6.88254 7.4905,10.29668 4.30443,3.36156 9.13251,3.35993 z m 54.99812,-104.0615 q 1.29656,6.14747 2.83887,14.81723 1.54229,8.61718 3.29556,20.38711 1.78824,11.71734 3.75256,26.8502 1.99931,15.13285 4.17489,34.25921 l 0.20991,-7e-5 q 3.25052,-9.45955 6.32615,-18.81389 3.11062,-9.35446 5.83656,-18.18327 2.72593,-8.88127 4.99728,-17.02689 2.27134,-8.19809 3.91328,-15.34503 1.64194,-7.14694 2.5496,-13.03251 0.90764,-5.93803 0.90617,-10.29951 -0.004,-11.08738 -4.86893,-17.39137 l 0.27957,-0.94588 q 0.66468,-0.15795 1.36437,-0.26323 0.69969,-0.10561 1.43439,-0.10585 1.7843,-6.1e-4 3.49884,0.68196 1.74952,0.62997 3.1145,2.1534 1.36497,1.52343 2.2055,4.09786 0.87552,2.57454 0.87682,6.41049 10e-4,3.41558 -1.08141,9.40624 -1.08255,5.99078 -3.10903,14.03106 -2.02649,8.0404 -4.962,17.92021 -2.90052,9.87981 -6.53529,21.12614 -3.63479,11.19364 -7.96891,23.54372 -4.29914,12.29738 -9.12287,25.22561 l -5.7375,0.68496 -0.73476,-0.15737 q -5.43688,-41.66793 -9.25915,-67.72993 -3.82228,-26.11447 -6.58985,-36.99084 -0.70066,-2.78467 -1.43604,-4.78126 -0.73538,-1.99648 -1.68043,-3.25729 -0.94505,-1.26081 -2.23973,-1.83847 -1.25969,-0.57756 -3.07897,-0.57695 -1.15455,3.9e-4 -2.5539,0.26362 -1.39938,0.21066 -3.18352,0.63164 l -0.38643,-4.67658 q 5.42216,-2.05113 9.06035,-3.15587 3.63818,-1.10474 6.12219,-1.10558 1.7843,-6e-4 2.9391,0.7873 1.15479,0.73521 1.96002,2.36387 0.8402,1.57618 1.4708,4.09822 0.66557,2.46946 1.40144,5.93737 z m 59.89744,3.55301 q -7.5e-4,-2.20703 -0.24618,-3.7833 -0.21044,-1.57639 -0.84051,-2.52197 -0.59511,-0.99827 -1.67981,-1.41828 -1.08474,-0.47248 -2.79905,-0.4719 -1.11956,3.8e-4 -2.51893,0.21104 -1.39939,0.15808 -3.18358,0.47391 l -0.38649,-4.88665 q 3.42837,-0.78945 6.36701,-1.36842 2.93862,-0.63156 5.49246,-1.05279 2.58882,-0.47383 4.82786,-0.68477 2.23904,-0.21094 4.23325,-0.21161 5.52781,-0.002 10.46081,-0.1089 4.96797,-0.15929 8.78143,-0.26572 3.84842,-0.15891 6.29741,-0.26489 2.48396,-0.15845 3.04374,-0.15864 1.60936,-5.4e-4 2.44942,1.15527 0.87502,1.10311 0.87582,3.46775 3.2e-4,0.9459 -0.13871,3.67839 -0.10404,2.73247 -0.31275,6.30574 -0.17374,3.52067 -0.41732,7.46175 -0.24357,3.94107 -0.52231,7.35675 l -3.35872,-0.15648 q 0.0693,-1.99687 0.1037,-3.73084 0.0344,-1.73409 0.0339,-3.25798 -10e-4,-4.41395 -0.35226,-7.14627 -0.3508,-2.7849 -1.29596,-4.36093 -0.91017,-1.57616 -2.51973,-2.15361 -1.60955,-0.57744 -4.09358,-0.62918 -3.46365,-0.0515 -6.08761,-0.0506 -2.62398,-0.0518 -5.03801,-0.051 l -1.85427,6.3e-4 q -1.32947,4.5e-4 -2.7289,0.0536 -1.36446,4.6e-4 -3.32364,0.1065 -0.0685,4.36139 -0.17165,9.77373 -0.0681,5.35987 -0.17105,11.50793 -0.10289,6.14794 -0.24053,12.97915 -0.10266,6.83108 -0.24016,14.08266 4.51331,0.31371 8.01198,0.47026 3.49865,0.10419 6.47247,0.10319 3.60357,-10e-4 6.36737,-0.31737 2.79876,-0.36886 5.28253,-1.1053 0.56055,2.31188 0.56117,4.151 5.1e-4,1.52389 -0.62888,2.57504 -0.6294,1.05115 -1.78371,1.73468 -1.15433,0.63095 -2.79857,0.94673 -1.64426,0.26332 -3.67345,0.264 -3.60357,10e-4 -8.18695,-0.57523 -4.54841,-0.62903 -9.76164,-1.5206 -0.0689,3.04769 -0.17245,7.35663 -0.10352,4.25637 -0.24184,9.09073 -0.13832,4.83437 -0.34652,9.93141 -0.17323,5.04457 -0.38157,9.72134 -0.17337,4.62419 -0.41697,8.51281 -0.20862,3.83591 -0.45269,6.30578 3.3934,-0.73685 6.61202,-1.05316 3.2186,-0.369 5.84256,-0.36988 3.67354,-10e-4 6.85738,0.31302 3.21881,0.26168 6.36756,0.26062 2.09917,-7.1e-4 3.67326,-0.84199 1.60906,-0.89387 2.79785,-3.1013 1.18876,-2.25989 1.95718,-6.04353 0.80341,-3.78365 1.25626,-9.61648 l 3.14884,0.2617 q -0.10198,8.82792 -0.83476,14.5557 -0.73278,5.72789 -2.06113,9.03877 -1.29338,3.31098 -3.1822,4.57274 -1.88881,1.31423 -4.26787,1.31503 -1.88925,6.4e-4 -4.16352,-0.52401 -2.27428,-0.52476 -4.96844,-1.20688 -2.69414,-0.62965 -5.84307,-1.15412 -3.11394,-0.52436 -6.71751,-0.52315 -3.18373,10e-4 -7.032,0.63293 -3.81329,0.57928 -7.83621,1.99937 l -0.62979,-0.10516 q 0.52302,-5.25487 0.90536,-12.71672 0.41732,-7.46176 0.72922,-16.28975 0.31188,-8.88057 0.51849,-18.70689 0.20661,-9.82644 0.34319,-19.81035 0.13656,-10.03648 0.16825,-19.81028 0.0666,-9.82628 0.0637,-18.60159 z m 60.24609,-0.0203 q -7.4e-4,-2.20702 -0.24617,-3.78329 -0.24544,-1.57639 -0.87553,-2.57454 -0.59509,-0.99816 -1.67983,-1.47075 -1.08472,-0.47258 -2.76405,-0.47202 -2.30909,7.8e-4 -5.9124,0.79017 l -0.42141,-4.67645 q 3.25342,-0.89442 7.10157,-1.84162 3.88314,-0.9471 7.94126,-1.73664 4.09312,-0.78967 8.18633,-1.26389 4.12818,-0.52691 7.90668,-0.52819 5.07299,-0.002 9.41173,1.36311 4.33872,1.31213 7.52352,4.46387 3.18478,3.09928 5.00578,8.19564 1.82099,5.09647 1.82354,12.66323 0.002,6.98877 -1.53507,12.82198 -1.50246,5.78072 -4.29981,10.35322 -2.76236,4.57249 -6.7147,7.83179 -3.95233,3.25919 -8.81476,5.15252 3.6417,9.35218 6.61792,16.44499 2.9762,7.09281 5.46202,12.45182 2.4858,5.30632 4.55128,9.14158 2.06545,3.78268 3.88567,6.56709 1.43519,2.259 2.69522,3.83504 1.26002,1.52336 2.41487,2.46887 1.18985,0.94539 2.37952,1.36536 1.18967,0.41998 2.48416,0.41954 1.39944,-4.7e-4 2.6588,-0.42127 1.25936,-0.4208 2.76348,-1.26206 l 0.98106,4.30858 q -4.44221,3.04916 -7.87035,4.52163 -3.42813,1.52505 -5.73721,1.52582 -1.15455,3.9e-4 -2.20427,-0.41963 -1.04971,-0.36745 -2.06457,-1.15528 -1.01486,-0.78795 -2.02986,-1.99616 -1.01503,-1.26078 -2.17014,-2.94189 -1.89015,-2.67923 -4.37571,-7.24995 -2.48556,-4.6233 -5.63663,-11.50597 -3.11611,-6.93515 -6.93278,-16.39232 -3.81667,-9.45716 -8.40403,-21.8567 l 0.0697,-0.68305 q 6.19241,-0.37 10.45998,-2.57835 4.26756,-2.20847 6.89025,-5.99273 2.65767,-3.78428 3.84544,-8.9868 1.18776,-5.2551 1.18559,-11.71834 -0.004,-12.40108 -4.34453,-18.54764 -4.34035,-6.14656 -12.84198,-6.1437 -1.81928,6.2e-4 -3.46355,0.21136 -1.64428,0.21074 -3.63836,0.57932 -0.0686,4.04606 -0.20627,10.82469 -0.10268,6.77862 -0.27464,15.60657 -0.13698,8.77536 -0.34336,19.28482 -0.2064,10.45688 -0.41246,21.91224 -0.20607,11.40279 -0.44691,23.48862 -0.24084,12.03336 -0.48171,24.01415 l -8.29118,1.57914 -0.62979,-0.10516 q 0.41476,-15.08109 0.76007,-28.5858 0.34531,-13.50471 0.55093,-26.27366 0.24058,-12.82154 0.37631,-25.32782 0.13572,-12.55874 0.13129,-25.69542 z m 72.48921,97.81796 q 2.62429,0.99748 5.00347,1.36459 2.37918,0.367 4.79323,0.36619 4.3383,-10e-4 8.1163,-1.5792 3.7779,-1.6302 6.5407,-5.04672 2.7977,-3.46898 4.3702,-8.82936 1.6076,-5.41285 1.6051,-12.92703 0,-6.98877 -1.6135,-12.24293 -1.6112,-5.30673 -4.6911,-8.82631 -3.045,-3.51959 -7.5238,-5.25216 -4.4789,-1.78503 -10.21659,-1.78309 -1.11955,3.7e-4 -2.30905,0.10615 -1.15452,0.0531 -2.34401,0.1584 -0.0689,3.20542 -0.1724,7.51436 -0.10352,4.25625 -0.24182,9.14319 -0.1383,4.88694 -0.31148,10.08912 -0.1382,5.20217 -0.31144,10.19427 -0.17325,4.99199 -0.34666,9.51104 -0.17341,4.51915 -0.34715,8.03982 z m 2.58739,-108.56283 q -0.0339,3.41548 -0.10213,8.40755 -0.0683,4.93938 -0.17118,11.14001 -0.10288,6.14795 -0.24038,13.39953 -0.10252,7.25146 -0.23976,15.29122 3.04376,-0.1064 6.01736,-0.73763 3.0086,-0.68416 5.7021,-1.99877 2.7284,-1.31462 5.0369,-3.41727 2.3083,-2.15512 3.9866,-5.15089 1.7133,-2.99578 2.6566,-6.98967 0.9783,-4.04647 0.9765,-9.19602 0,-6.04287 -1.2979,-10.19373 -1.2959,-4.15074 -3.5708,-6.67223 -2.24,-2.5215 -5.2842,-3.62399 -3.0091,-1.10238 -6.4728,-1.10122 -1.67931,5.7e-4 -3.46352,0.21136 -1.74924,0.21077 -3.53339,0.63175 z m -9.12776,10.72266 q -7.5e-4,-2.20703 -0.24619,-3.7833 -0.24543,-1.57638 -0.87551,-2.57454 -0.59511,-0.99816 -1.67983,-1.47074 -1.08473,-0.47259 -2.76407,-0.47202 -2.30908,7.7e-4 -5.91238,0.79016 l -0.35144,-4.67647 q 3.18343,-0.8944 6.92663,-1.84156 3.7432,-0.94705 7.69636,-1.73656 3.98816,-0.78963 7.97641,-1.26382 4.02323,-0.52688 7.76679,-0.52814 3.0437,-0.001 5.9828,0.47094 2.939,0.47196 5.5633,1.57447 2.6243,1.05006 4.829,2.88854 2.2048,1.7858 3.815,4.46513 1.6103,2.67943 2.5212,6.35736 0.9109,3.62546 0.9125,8.35463 0,6.77858 -1.6404,12.08641 -1.6075,5.25523 -4.3701,9.19716 -2.7626,3.88946 -6.3653,6.57054 -3.6027,2.6285 -7.5906,4.20631 l 2e-4,0.47295 q 5.2481,0.57622 9.692,2.62403 4.444,2.04781 7.699,5.83009 3.255,3.78228 5.0761,9.3517 1.8562,5.5693 1.8587,13.18864 0,6.41078 -1.1856,11.56073 -1.1529,5.15004 -3.2157,9.14431 -2.0628,3.99426 -4.8957,6.83269 -2.798,2.83854 -6.086,4.67876 -3.2881,1.84022 -6.9264,2.6822 -3.6383,0.89455 -7.3468,0.8958 -3.07877,10e-4 -5.91282,-0.52353 -2.79907,-0.52447 -5.98307,-1.31158 l -6.7869,1.21084 -0.62979,-0.10516 q 0.45249,-6.93635 0.79964,-14.97607 0.38214,-8.03984 0.62409,-16.81523 0.27693,-8.77552 0.48373,-18.02386 0.20681,-9.24833 0.30861,-18.60167 0.13678,-9.40592 0.16865,-18.65419 0.0668,-9.30087 0.0639,-18.07618 z m 63.04497,-0.0212 q -7e-4,-2.20703 -0.2462,-3.7833 -0.2454,-1.57638 -0.8755,-2.57454 -0.595,-0.99816 -1.6798,-1.47075 -1.0847,-0.47258 -2.7641,-0.47201 -2.309,7.7e-4 -5.9124,0.79016 l -0.4214,-4.67645 q 3.2534,-0.89442 7.1016,-1.84162 3.8832,-0.9471 7.9413,-1.73664 4.0931,-0.78967 8.1863,-1.26389 4.1282,-0.52691 7.9067,-0.52819 5.073,-0.002 9.4117,1.36311 4.3388,1.31213 7.5235,4.46387 3.1848,3.09928 5.0058,8.19564 1.821,5.09647 1.8235,12.66323 0,6.98877 -1.535,12.82198 -1.5025,5.78072 -4.2998,10.35322 -2.7624,4.57249 -6.7147,7.83179 -3.9524,3.25919 -8.8148,5.15252 3.6417,9.35218 6.618,16.44499 2.9761,7.09281 5.462,12.45182 2.4858,5.30632 4.5512,9.14158 2.0655,3.78268 3.8857,6.56709 1.4352,2.259 2.6952,3.83504 1.26,1.52336 2.4149,2.46887 1.1898,0.94539 2.3795,1.36536 1.1897,0.41998 2.4842,0.41954 1.3994,-4.7e-4 2.6588,-0.42127 1.2593,-0.4208 2.7634,-1.26206 l 0.9811,4.30858 q -4.4422,3.04916 -7.8703,4.52163 -3.4282,1.52505 -5.7372,1.52582 -1.1546,3.9e-4 -2.2043,-0.41963 -1.0497,-0.36745 -2.0646,-1.15528 -1.0149,-0.78795 -2.0298,-1.99616 -1.0151,-1.26078 -2.1702,-2.94189 -1.8901,-2.67923 -4.3757,-7.24995 -2.4856,-4.6233 -5.6366,-11.50597 -3.1161,-6.93515 -6.9328,-16.39232 -3.8167,-9.45716 -8.404,-21.8567 l 0.07,-0.68305 q 6.1923,-0.37 10.4599,-2.57835 4.2676,-2.20847 6.8903,-5.99273 2.6577,-3.78428 3.8454,-8.9868 1.1878,-5.2551 1.1856,-11.71834 0,-12.40108 -4.3445,-18.54764 -4.3403,-6.14656 -12.842,-6.1437 -1.8193,6.2e-4 -3.4636,0.21136 -1.6442,0.21074 -3.6383,0.57932 -0.069,4.04606 -0.2062,10.82469 -0.1028,6.77862 -0.2747,15.60657 -0.137,8.77536 -0.3434,19.28482 -0.2063,10.45688 -0.4124,21.91224 -0.2061,11.40279 -0.447,23.48862 -0.2408,12.03336 -0.4816,24.01415 l -8.2912,1.57914 -0.6298,-0.10516 q 0.4148,-15.08109 0.76,-28.5858 0.3454,-13.50471 0.551,-26.27366 0.2405,-12.82154 0.3763,-25.32782 0.1357,-12.55874 0.1313,-25.69542 z m 65.9139,-0.0222 q -8e-4,-2.20703 -0.2462,-3.7833 -0.2104,-1.57639 -0.8405,-2.52197 -0.5951,-0.99828 -1.6798,-1.41829 -1.0847,-0.47247 -2.7991,-0.47189 -1.1195,3.8e-4 -2.5189,0.21103 -1.3994,0.15809 -3.1836,0.47392 l -0.3864,-4.88666 q 3.4283,-0.78944 6.3669,-1.36842 2.9387,-0.63155 5.4925,-1.05279 2.5888,-0.47382 4.8278,-0.68476 2.2391,-0.21095 4.2333,-0.21162 5.5278,-0.002 10.4608,-0.1089 4.968,-0.15928 8.7815,-0.26572 3.8484,-0.15891 6.2974,-0.26488 2.4839,-0.15845 3.0437,-0.15864 1.6093,-5.4e-4 2.4494,1.15526 0.875,1.10311 0.8758,3.46775 4e-4,0.9459 -0.1387,3.67839 -0.104,2.73248 -0.3127,6.30574 -0.1737,3.52068 -0.4174,7.46175 -0.2435,3.94108 -0.5223,7.35675 l -3.3587,-0.15648 q 0.07,-1.99686 0.1037,-3.73084 0.034,-1.73409 0.034,-3.25798 0,-4.41394 -0.3522,-7.14626 -0.3509,-2.7849 -1.296,-4.36094 -0.9102,-1.57616 -2.5197,-2.1536 -1.6096,-0.57745 -4.0937,-0.62919 -3.4636,-0.0515 -6.0875,-0.0506 -2.624,-0.0518 -5.038,-0.051 l -1.8543,6.2e-4 q -1.3295,4.5e-4 -2.729,0.0536 -1.3644,4.6e-4 -3.3236,0.10649 -0.069,4.3614 -0.1716,9.77374 -0.068,5.35987 -0.171,11.50792 -0.103,6.14795 -0.2406,12.97916 -0.1027,6.83108 -0.2402,14.08266 4.5134,0.31371 8.012,0.47025 3.4987,0.1042 6.4725,0.1032 3.6036,-10e-4 6.3673,-0.31738 2.7988,-0.36885 5.2826,-1.10529 0.5605,2.31188 0.5611,4.15099 6e-4,1.52389 -0.6288,2.57504 -0.6294,1.05115 -1.7837,1.73468 -1.1543,0.63095 -2.7986,0.94673 -1.6443,0.26332 -3.6734,0.264 -3.6036,10e-4 -8.187,-0.57523 -4.5484,-0.62903 -9.7616,-1.5206 -0.069,3.04769 -0.1725,7.35664 -0.1035,4.25636 -0.2418,9.09073 -0.1384,4.83436 -0.3465,9.93141 -0.1733,5.04456 -0.3816,9.72134 -0.1734,4.62419 -0.417,8.5128 -0.2086,3.83592 -0.4527,6.30579 3.3934,-0.73686 6.612,-1.05317 3.2186,-0.36899 5.8426,-0.36988 3.6735,-10e-4 6.8574,0.31303 3.2188,0.26168 6.3675,0.26062 2.0992,-7.1e-4 3.6733,-0.84199 1.609,-0.89387 2.7979,-3.1013 1.1887,-2.25989 1.9571,-6.04353 0.8034,-3.78365 1.2563,-9.61649 l 3.1488,0.2617 q -0.102,8.82793 -0.8348,14.55571 -0.7327,5.72789 -2.0611,9.03877 -1.2934,3.31098 -3.1822,4.57274 -1.8888,1.31423 -4.2679,1.31503 -1.8892,6.3e-4 -4.1635,-0.52401 -2.2743,-0.52476 -4.9684,-1.20688 -2.6941,-0.62966 -5.8431,-1.15412 -3.1139,-0.52437 -6.7175,-0.52315 -3.1837,10e-4 -7.0319,0.63293 -3.8133,0.57927 -7.8363,1.99937 l -0.6298,-0.10516 q 0.523,-5.25488 0.9054,-12.71673 0.4173,-7.46175 0.7292,-16.28974 0.3119,-8.88057 0.5185,-18.7069 0.2066,-9.82643 0.3432,-19.81034 0.1365,-10.03649 0.1683,-19.81029 0.067,-9.82627 0.064,-18.60159 z m 113.7057,106.36919 -0.7348,-0.15736 q -1.0178,-9.6683 -2.0352,-18.0229 -0.9824,-8.3546 -1.9995,-15.76341 -0.9821,-7.40882 -1.964,-14.08192 -0.9469,-6.67312 -1.8586,-12.92598 -1.2974,-8.7223 -2.3145,-16.07854 -1.0171,-7.4088 -2.139,-14.18701 l -0.2448,8e-5 q -1.3969,7.61981 -2.829,14.7141 -1.4321,7.04183 -2.9341,13.97854 -1.5021,6.88413 -3.144,13.92603 -1.6421,6.98921 -3.4588,14.50412 -1.8168,7.5148 -3.8782,15.7654 -2.0263,8.25047 -4.3323,17.60466 l -6.0174,0.73763 -0.7347,-0.15737 q -5.542,-41.98312 -9.5392,-68.09764 -3.9622,-26.16699 -6.3098,-36.57055 -0.6307,-2.83727 -1.3311,-4.7813 -0.7004,-1.9966 -1.6454,-3.25741 -0.9451,-1.26081 -2.2397,-1.83836 -1.2597,-0.57757 -3.0441,-0.57697 -1.1545,3.9e-4 -2.5189,0.26361 -1.3994,0.21066 -3.0786,0.63161 l -0.3864,-4.67658 q 5.4222,-1.99867 8.9905,-3.05081 3.6031,-1.10462 5.9472,-1.10541 1.8543,-6.2e-4 3.0441,0.78716 1.2248,0.73518 2.065,2.4164 0.8402,1.68122 1.4708,4.36099 0.6307,2.67965 1.3317,6.51537 1.0165,5.46454 2.4188,13.87158 1.4372,8.35446 3.1553,19.7566 1.7182,11.40202 3.7173,25.85185 1.999,14.44971 4.1742,32.10475 l 0.2448,-8e-5 q 1.747,-7.14697 3.5985,-15.13474 1.8866,-7.98777 3.808,-16.4485 1.9213,-8.46074 3.8427,-17.2367 1.9212,-8.77596 3.7726,-17.49944 1.8512,-8.77593 3.5627,-17.34164 1.7464,-8.56571 3.2831,-16.60594 0.1746,-0.94596 0.8392,-1.36656 0.6646,-0.4206 1.4343,-0.42086 0.7697,-2.6e-4 1.3995,0.31487 0.9115,5.25439 2.0685,12.50542 1.1569,7.19857 2.4192,15.65823 1.2624,8.40709 2.595,17.75995 1.3676,9.30037 2.6653,18.86354 1.3327,9.56304 2.5604,19.02108 1.2277,9.45804 2.2802,18.07538 l 0.1749,-6e-5 q 2.5163,-7.88283 4.9975,-16.34375 2.5161,-8.51352 4.7874,-16.97426 2.3063,-8.46086 4.2627,-16.65885 1.9914,-8.19799 3.4234,-15.50247 1.467,-7.30461 2.2696,-13.45279 0.8376,-6.1483 0.8361,-10.56225 -9e-4,-2.57482 -0.3166,-5.20201 -0.2808,-2.62731 -0.8764,-4.93917 -0.5955,-2.31187 -1.5408,-4.20324 -0.9102,-1.89139 -2.1701,-2.99448 l 0.1396,-0.99841 q 0.6997,-0.15785 1.3994,-0.26323 0.6997,-0.10561 1.3994,-0.10585 1.9592,-6.6e-4 3.7437,0.73434 1.7845,0.73512 3.1496,2.31101 1.365,1.576 2.1705,4.09799 0.8055,2.52198 0.8067,6.0426 9e-4,2.67986 -0.6274,7.09402 -0.6283,4.36169 -1.8158,10.08963 -1.1527,5.72803 -2.7947,12.61221 -1.642,6.83171 -3.6686,14.50419 -1.9917,7.67258 -4.3329,16.02831 -2.3063,8.30325 -4.8574,16.92181 -2.5161,8.56598 -5.2071,17.28962 -2.656,8.67117 -5.3821,17.13218 z m 48.3499,-106.42379 q -7e-4,-2.20703 -0.2461,-3.7833 -0.2104,-1.57639 -0.8405,-2.52197 -0.5951,-0.99827 -1.6798,-1.41828 -1.0847,-0.47248 -2.7991,-0.4719 -1.1195,3.8e-4 -2.5189,0.21104 -1.3994,0.15808 -3.1836,0.47391 l -0.3864,-4.88666 q 3.4283,-0.78944 6.3669,-1.36842 2.9386,-0.63155 5.4925,-1.05279 2.5888,-0.47382 4.8278,-0.68476 2.2391,-0.21094 4.2333,-0.21162 5.5278,-0.002 10.4608,-0.10889 4.968,-0.15929 8.7815,-0.26573 3.8484,-0.15891 6.2974,-0.26488 2.4839,-0.15845 3.0437,-0.15864 1.6093,-5.4e-4 2.4494,1.15527 0.875,1.1031 0.8758,3.46774 3e-4,0.9459 -0.1387,3.67839 -0.104,2.73248 -0.3127,6.30574 -0.1737,3.52068 -0.4174,7.46176 -0.2435,3.94107 -0.5223,7.35674 l -3.3587,-0.15648 q 0.07,-1.99686 0.1037,-3.73084 0.034,-1.73409 0.034,-3.25798 0,-4.41394 -0.3523,-7.14626 -0.3508,-2.7849 -1.2959,-4.36094 -0.9102,-1.57615 -2.5198,-2.1536 -1.6095,-0.57745 -4.0936,-0.62918 -3.4636,-0.0515 -6.0875,-0.0506 -2.6241,-0.0518 -5.038,-0.051 l -1.8543,6.2e-4 q -1.3295,4.5e-4 -2.729,0.0536 -1.3644,4.6e-4 -3.3236,0.10649 -0.069,4.3614 -0.1716,9.77374 -0.068,5.35987 -0.171,11.50793 -0.103,6.14794 -0.2406,12.97915 -0.1027,6.83108 -0.2402,14.08266 4.5134,0.31371 8.012,0.47025 3.4987,0.1042 6.4725,0.1032 3.6036,-10e-4 6.3673,-0.31737 2.7988,-0.36886 5.2826,-1.1053 0.5605,2.31188 0.5611,4.15099 5e-4,1.52389 -0.6288,2.57504 -0.6294,1.05116 -1.7837,1.73468 -1.1544,0.63096 -2.7986,0.94674 -1.6443,0.26331 -3.6734,0.264 -3.6036,10e-4 -8.187,-0.57523 -4.5484,-0.62904 -9.7617,-1.52061 -0.069,3.0477 -0.1724,7.35664 -0.1035,4.25636 -0.2418,9.09073 -0.1384,4.83437 -0.3465,9.93141 -0.1733,5.04456 -0.3817,9.72134 -0.1733,4.62419 -0.4169,8.5128 -0.2086,3.83592 -0.4527,6.30579 3.3934,-0.73686 6.612,-1.05317 3.2186,-0.36899 5.8426,-0.36988 3.6735,-10e-4 6.8574,0.31303 3.2188,0.26168 6.3675,0.26062 2.0992,-7.1e-4 3.6733,-0.84199 1.609,-0.89387 2.7979,-3.1013 1.1887,-2.25989 1.9571,-6.04353 0.8034,-3.78365 1.2563,-9.61649 l 3.1488,0.2617 q -0.102,8.82793 -0.8348,14.55571 -0.7327,5.72789 -2.0611,9.03877 -1.2934,3.31098 -3.1822,4.57274 -1.8888,1.31423 -4.2679,1.31503 -1.8892,6.3e-4 -4.1635,-0.52401 -2.2743,-0.52476 -4.9684,-1.20688 -2.6941,-0.62966 -5.8431,-1.15412 -3.1139,-0.52437 -6.7175,-0.52315 -3.1837,0.001 -7.0319,0.63293 -3.8134,0.57927 -7.8363,1.99937 l -0.6298,-0.10516 q 0.523,-5.25487 0.9054,-12.71673 0.4173,-7.46175 0.7292,-16.28974 0.3119,-8.88057 0.5185,-18.70689 0.2066,-9.82644 0.3432,-19.81035 0.1365,-10.03649 0.1683,-19.81029 0.067,-9.82627 0.064,-18.60158 z m 69.3741,-10.4803 q -0.034,2.62741 -0.1024,7.82956 -0.068,5.20214 -0.1708,12.13837 -0.1027,6.88377 -0.2748,15.08116 -0.1372,8.14479 -0.3093,16.70998 -0.1721,8.51272 -0.3791,16.97276 -0.2071,8.46016 -0.4145,15.97442 -0.2074,7.51437 -0.4502,13.66236 -0.2079,6.09551 -0.4165,9.93154 3.4641,1.36511 6.3681,1.83697 2.939,0.41939 5.7728,0.41843 5.8777,-0.002 10.4951,-2.21045 4.6525,-2.2086 8.1498,-6.15077 3.5322,-3.99476 5.9794,-9.46046 2.4821,-5.46572 4.0193,-11.98206 1.5722,-6.51636 2.2695,-13.87317 0.7322,-7.35682 0.7296,-15.08119 0,-11.56033 -1.7215,-21.17582 -1.6825,-9.61561 -5.5333,-16.55051 -3.8158,-6.93491 -9.9747,-10.76868 -6.1589,-3.88645 -15.0454,-3.88346 -2.2041,7.4e-4 -4.4431,0.15911 -2.2391,0.15848 -4.548,0.42191 z m -21.0973,-1.72686 q 3.7082,-1.05219 7.6263,-1.99941 3.9181,-0.99968 7.9063,-1.73674 3.9882,-0.73695 7.9764,-1.15866 4.0233,-0.47431 7.9418,-0.47563 5.4578,-0.002 10.5661,1.04738 5.1433,0.99663 9.6573,3.4649 4.5491,2.41557 8.3289,6.51302 3.7799,4.04475 6.4758,10.13929 2.731,6.04207 4.2382,14.34392 1.5072,8.30197 1.5108,19.17916 0,9.77368 -1.2881,18.75973 -1.2915,8.93336 -3.7729,16.65857 -2.4814,7.72532 -6.0829,14.03217 -3.5664,6.30683 -8.183,10.82737 -4.5818,4.46806 -10.1437,6.93962 -5.5269,2.41908 -11.8945,2.42122 -3.2886,0.001 -6.6825,-0.68089 -3.3939,-0.68199 -7.068,-2.09949 l -6.9267,1.26346 -0.6299,-0.10516 q 0.2439,-3.36309 0.5219,-8.88053 0.278,-5.57013 0.5204,-12.92678 0.2774,-7.35667 0.5193,-16.34225 0.2418,-9.03816 0.4133,-19.39 0.2064,-10.40431 0.3075,-21.91221 0.1011,-11.50779 0.097,-23.90887 -9e-4,-2.52225 -0.1415,-4.4139 -0.1405,-1.89164 -0.7357,-3.15257 -0.5602,-1.26093 -1.7149,-1.89111 -1.1198,-0.63019 -3.079,-0.62952 -2.3092,7.7e-4 -5.9124,0.79016 z"
       id="text43"
       style="font-size:192px;font-family:Gabriola;-inkscape-font-specification:'Gabriola, Normal';white-space:pre;fill:#dd94fc;stroke-width:22.8676"
       aria-label="OVERBREWED" />
  </g>
</svg>
